<svg width="600" height="450" viewBox="0 0 600 450" fill="none" xmlns="http://www.w3.org/2000/svg">
<path d="M238.748 64.8675C130.183 43.6293 21.0765 91.0068 12.3451 224.427C5.25311 332.796 108.362 417.204 238.748 442.255C369.133 467.305 485.252 388.889 513.704 307.746C563.349 166.158 347.312 86.1058 238.748 64.8675Z" fill="#7B53D1"/>
<g style="mix-blend-mode:multiply">
<path d="M205.316 67.9171C106.084 121.959 49.8826 222.477 144.796 307.559C191.685 349.592 250.57 369.79 327.993 381.799C404.473 393.662 469.972 391.386 554.264 307.559C635.503 226.768 548.266 86.477 479.567 30.2512C410.868 -25.9746 304.548 13.8748 205.316 67.9171Z" fill="url(#paint0_linear)" fill-opacity="0.7"/>
</g>
<defs>
<linearGradient id="paint0_linear" x1="187" y1="251.5" x2="531" y2="200.5" gradientUnits="userSpaceOnUse">
<stop stop-color="#67EAA3"/>
<stop offset="1" stop-color="#8098EC"/>
</linearGradient>
</defs>
</svg>
