<svg width="600" height="450" viewBox="0 0 600 450" fill="none" xmlns="http://www.w3.org/2000/svg">
<path d="M378.12 24.1977C297.701 9.98719 162.215 45.0127 116.505 92.2052C58.9908 151.585 87.4933 299.273 162.822 342.411C227.972 379.721 422.91 353.069 484.496 330.231C546.082 307.393 569.495 183.051 558.298 138.389C547.1 93.7277 458.538 38.4082 378.12 24.1977Z" fill="#F8AC67"/>
<g style="mix-blend-mode:multiply">
<path d="M170.566 196.831C121.211 166.745 55.5753 175.923 24.0292 233.036C6.39486 264.962 -19.567 347.996 65.2427 404.885C129.861 448.23 451.427 429.872 540.977 392.137C613.737 361.477 619.333 215.698 518.59 215.698C401.055 215.698 368.106 288.189 286.065 277.911C228.061 270.644 230.64 233.453 170.566 196.831Z" fill="url(#paint0_linear)" fill-opacity="0.7"/>
</g>
<defs>
<linearGradient id="paint0_linear" x1="103" y1="281.5" x2="479" y2="324.5" gradientUnits="userSpaceOnUse">
<stop stop-color="#7ED7DD"/>
<stop offset="1" stop-color="#4558BF"/>
</linearGradient>
</defs>
</svg>
