<svg width="600" height="450" viewBox="0 0 600 450" fill="none" xmlns="http://www.w3.org/2000/svg">
<path d="M423.901 197.455C348.41 133.792 358.047 20.3743 237.583 66.9182C117.118 113.462 -4.41683 309.802 63.5786 392.725C131.574 475.648 480.653 447.828 565.781 392.725C650.909 337.621 499.392 261.118 423.901 197.455Z" fill="#6B83DB"/>
<g style="mix-blend-mode:multiply">
<path d="M277.306 4.50685C107.762 -0.857307 77.276 37.2283 43.0462 77.4597C8.81629 117.691 -9.36839 206.2 31.2796 273.789C71.9276 341.377 185.314 407.357 234.519 336.55C315.13 220.55 493.382 268.425 544.727 187.425C596.072 106.426 446.851 9.87101 277.306 4.50685Z" fill="url(#paint0_linear)" fill-opacity="0.7"/>
</g>
<defs>
<linearGradient id="paint0_linear" x1="118" y1="89.5" x2="426" y2="218" gradientUnits="userSpaceOnUse">
<stop stop-color="#BDF129"/>
<stop offset="1" stop-color="#67C4A2"/>
</linearGradient>
</defs>
</svg>
