<?xml version="1.0" standalone="no"?>
<!DOCTYPE svg PUBLIC "-//W3C//DTD SVG 20010904//EN"
 "http://www.w3.org/TR/2001/REC-SVG-20010904/DTD/svg10.dtd">
<svg version="1.0" xmlns="http://www.w3.org/2000/svg"
 width="512.000000pt" height="512.000000pt" viewBox="0 0 512.000000 512.000000"
 preserveAspectRatio="xMidYMid meet">
<metadata>
Created by potrace 1.11, written by Peter Selinger 2001-2013
</metadata>
<g transform="translate(0.000000,512.000000) scale(0.100000,-0.100000)"
fill="#000000" stroke="none">
<path d="M1704 4780 c-105 -29 -165 -68 -220 -144 l-21 -29 -64 21 c-186 61
-411 100 -544 96 -358 -13 -477 -277 -318 -704 94 -254 310 -615 562 -939 109
-141 161 -200 271 -312 76 -77 113 -112 230 -213 58 -51 218 -173 308 -237 48
-34 91 -65 96 -69 5 -5 -13 -39 -40 -77 -27 -37 -63 -88 -79 -113 -33 -49
-288 -390 -322 -430 -172 -204 -234 -273 -335 -372 -66 -65 -123 -118 -128
-118 -4 0 -15 -16 -25 -36 -47 -98 39 -197 144 -165 52 15 270 227 426 415 22
27 50 60 63 75 12 14 42 51 65 81 23 30 45 57 48 60 11 9 235 313 294 400 32
47 69 99 83 116 l24 31 107 -48 c245 -109 425 -123 551 -44 176 111 215 433
68 572 -65 61 -125 85 -227 89 -145 5 -334 -79 -496 -221 -22 -19 -43 -35 -48
-35 -7 0 -156 98 -167 110 -3 3 -38 30 -79 60 -209 153 -439 371 -585 555
-110 139 -105 132 -145 190 -19 28 -38 52 -41 55 -3 3 -45 64 -92 135 -235
357 -362 646 -362 830 0 62 33 101 96 112 91 17 291 -6 423 -47 17 -5 67 -21
112 -35 l81 -26 7 -42 c31 -194 139 -353 320 -472 283 -186 606 -220 752 -79
76 73 67 192 -22 286 -110 117 -397 292 -677 414 -49 20 -88 41 -88 44 0 15
62 33 113 33 117 2 233 -31 402 -115 88 -43 334 -199 405 -256 14 -11 71 -57
127 -102 112 -88 293 -256 293 -272 0 -6 -24 -38 -54 -71 -131 -150 -253 -364
-276 -485 -43 -218 74 -385 269 -384 197 0 364 170 450 457 46 152 35 240 -55
451 -6 13 116 96 189 129 206 90 370 59 537 -104 85 -83 220 -271 220 -308 0
-6 -18 -13 -40 -17 -55 -9 -182 -77 -229 -123 -55 -53 -107 -144 -133 -228
-23 -75 -27 -178 -17 -419 5 -104 1 -163 -15 -266 -24 -154 -107 -341 -215
-483 -71 -94 -89 -114 -178 -192 -166 -146 -431 -295 -614 -346 -290 -80 -388
-278 -262 -528 68 -134 206 -288 432 -481 86 -73 131 -85 188 -50 36 21 50 43
58 89 7 40 -13 79 -62 121 -294 251 -432 419 -433 527 0 28 72 76 132 88 156
32 491 210 671 357 60 49 177 164 226 223 93 110 204 314 249 455 62 194 74
329 58 650 -8 168 19 256 99 322 53 43 111 60 222 62 117 3 145 16 170 74 19
46 10 80 -60 217 -192 377 -404 579 -672 639 -120 26 -290 3 -429 -58 -55 -25
-226 -130 -236 -147 -3 -4 -48 34 -100 85 -288 281 -682 550 -969 661 -171 66
-351 87 -467 55z m184 -616 c150 -76 352 -200 367 -224 9 -15 -60 -12 -133 5
-74 18 -191 70 -255 114 -56 38 -125 110 -156 162 -29 49 -36 51 177 -57z
m1335 -679 c1 -109 -84 -290 -165 -353 -9 -7 -30 -17 -47 -22 -48 -13 -65 10
-57 77 10 82 77 206 195 357 l46 58 14 -33 c8 -19 14 -56 14 -84z m-440 -1066
c16 -20 18 -33 13 -79 -13 -109 -53 -138 -164 -120 -66 11 -222 68 -222 81 0
10 85 71 130 94 112 58 208 67 243 24z"/>
</g>
</svg>
